HIERARCHY
ROOT Hips
{
  OFFSET 196.326 95.9168 97.7182
  CHANNELS 6 Xposition Yposition Zposition Zrotation Xrotation Yrotation
  JOINT LeftUpLeg
  {
    OFFSET 8.64259 1.95398 -2.38835
    CHANNELS 3 Zrotation Xrotation Yrotation
    JOINT LeftLeg
    {
      OFFSET 43.7702 0 0
      CHANNELS 3 Zrotation Xrotation Yrotation
      JOINT LeftFoot
      {
        OFFSET 40.6238 0 0
        CHANNELS 3 Zrotation Xrotation Yrotation
        JOINT LeftToeBase
        {
          OFFSET 12.7242 0 0
          CHANNELS 3 Zrotation Xrotation Yrotation
          End Site
          {
            OFFSET 0 0 0
          }
        }
      }
    }
  }
  JOINT RightUpLeg
  {
    OFFSET -8.2249 1.95398 -2.59336
    CHANNELS 3 Zrotation Xrotation Yrotation
    JOINT RightLeg
    {
      OFFSET 43.5653 0 0
      CHANNELS 3 Zrotation Xrotation Yrotation
      JOINT RightFoot
      {
        OFFSET 40.6238 0 0
        CHANNELS 3 Zrotation Xrotation Yrotation
        JOINT RightToeBase
        {
          OFFSET 12.7242 0 0
          CHANNELS 3 Zrotation Xrotation Yrotation
          End Site
          {
            OFFSET 0 0 0
          }
        }
      }
    }
  }
  JOINT Spine
  {
    OFFSET 0.165834 0.87714 6.61349
    CHANNELS 3 Zrotation Xrotation Yrotation
    JOINT Spine1
    {
      OFFSET 7.38963 1.71661e-005 0
      CHANNELS 3 Zrotation Xrotation Yrotation
      JOINT Spine2
      {
        OFFSET 11.9445 1.14441e-005 0
        CHANNELS 3 Zrotation Xrotation Yrotation
        JOINT Spine3
        {
          OFFSET 14.7254 4.19617e-005 0
          CHANNELS 3 Zrotation Xrotation Yrotation
          JOINT Spine4
          {
            OFFSET 10.9679 0 0
            CHANNELS 3 Zrotation Xrotation Yrotation
            JOINT RightShoulder
            {
              OFFSET 2.46616 -1.6653 3.69651
              CHANNELS 3 Zrotation Xrotation Yrotation
              JOINT RightArm
              {
                OFFSET 13.0012 0 0
                CHANNELS 3 Zrotation Xrotation Yrotation
                JOINT RightForeArm
                {
                  OFFSET 28.7848 1.52588e-005 0
                  CHANNELS 3 Zrotation Xrotation Yrotation
                  JOINT RightHand
                  {
                    OFFSET 26.5688 1.52588e-005 0
                    CHANNELS 3 Zrotation Xrotation Yrotation
                    End Site
                    {
                      OFFSET 0 0 0
                    }
                  }
                }
              }
            }
            JOINT LeftShoulder
            {
              OFFSET 2.38034 -1.29275 -3.75231
              CHANNELS 3 Zrotation Xrotation Yrotation
              JOINT LeftArm
              {
                OFFSET 16.3182 6.10351e-005 0
                CHANNELS 3 Zrotation Xrotation Yrotation
                JOINT LeftForeArm
                {
                  OFFSET 27.0901 0 0
                  CHANNELS 3 Zrotation Xrotation Yrotation
                  JOINT LeftHand
                  {
                    OFFSET 24.5451 1.52588e-005 0
                    CHANNELS 3 Zrotation Xrotation Yrotation
                    End Site
                    {
                      OFFSET 0 0 0
                    }
                  }
                }
              }
            }
            JOINT Neck
            {
              OFFSET 5.0226 -0.0266342 0
              CHANNELS 3 Zrotation Xrotation Yrotation
              JOINT Head
              {
                OFFSET 6.69363 2.86102e-005 0
                CHANNELS 3 Zrotation Xrotation Yrotation
                End Site
                {
                  OFFSET 0 0 0
                }
              }
            }
          }
        }
      }
    }
  }
}
MOTION
Frames:	18
Frame Time:	0.0416667
14.055 90.5539 15.1036 75.6534 -50.3797 81.1117 -167.414 26.5497 93.6008 -92.2455 9.93795 0.855795 44.9826 -2.90148 11.3477 46.1574 17.2332 -9.68956 175.894 35.3004 99.0903 -42.0455 9.81182 4.61099 74.0409 -4.4997 -2.23959 24.0652 -2.38245 19.6114 -0.956678 9.17759 -89.84 8.52247 -1.83819 0.432097 -3.14731 -1.8174 0.512601 -25.6927 -1.88305 -0.140514 -5.68004 -1.88305 -0.140524 78.8604 -45.9272 -119.336 28.8682 -10.4448 42.2855 3.55063 2.13273 -104.172 4.51934 0.29778 -2.82498 -103.239 -38.4976 54.0519 0.650457 51.9235 -34.8171 22.0492 -15.1884 -92.8986 4.56375 0.203008 0.177598 3.06997 7.45629 -0.714434 18.3881 8.4601 4.35514 
19.6689 90.2534 21.8614 72.7902 -49.2889 80.1651 -166.868 39.225 94.639 -92.6816 9.84233 1.03118 47.1218 -1.69132 11.481 48.03 19.7464 -6.0632 177.779 32.7535 101.501 -44.1337 13.7275 2.29458 78.2625 -6.29434 -2.84996 31.0398 -0.607054 16.8162 -0.468841 8.94133 -89.9118 8.99209 -0.895854 0.236494 -2.67859 -0.884573 0.27569 -25.2161 -0.925507 -0.0437099 -5.20347 -0.925496 -0.0436973 78.1052 -45.7367 -120.579 28.9075 -10.8573 43.8724 3.21721 2.94974 -104.29 5.0139 0.297452 -3.00504 -104.287 -38.8945 52.6066 3.26281 52.3833 -35.52 20.1789 -14.7666 -92.1039 5.86308 0.168009 -0.772517 3.74537 5.81627 -2.24452 18.119 7.10023 4.37654 
26.1092 91.1189 29.0462 71.256 -47.6778 79.1171 -167.313 47.1723 93.8042 -85.2688 10.7736 0.520235 51.3939 -0.0359197 12.2266 50.1053 21.674 -6.42227 179.011 26.4164 101.459 -40.8764 16.1289 1.01493 77.5476 -7.28132 -3.2831 40.4479 1.45234 18.2279 -0.357949 8.84385 -89.8706 9.18705 -0.655896 0.303411 -2.48377 -0.641927 0.331978 -25.0202 -0.716772 0.0922535 -5.00756 -0.716772 0.0922427 78.2106 -44.3077 -121.09 29.8067 -13.2987 42.5549 2.85886 3.2023 -101.946 3.48488 0.2341 -3.50459 -105.1 -39.1135 51.4509 1.02723 52.0087 -32.6157 19.4657 -14.5447 -92.6277 5.85859 0.265464 0.574479 5.74629 4.93711 -1.52066 17.0481 5.79895 3.05277 
33.0067 92.0714 36.77 73.4913 -45.048 79.2994 -168.539 49.5053 91.6789 -72.5479 12.3152 -0.546425 53.7737 -0.524785 11.6457 51.0382 23.5986 -2.78754 178.715 17.7754 98.952 -38.4486 14.0066 0.847575 72.259 -5.74592 -2.85389 48.7844 3.51382 19.8692 -0.496781 8.90128 -89.6258 9.07348 -0.823647 0.798899 -2.59747 -0.787682 0.83436 -25.1337 -1.02566 0.514429 -5.12106 -1.02565 0.51442 79.0473 -43.4222 -120.202 31.1665 -13.0282 41.877 3.87822 3.13748 -101.862 4.41094 0.280666 -3.33014 -104.477 -38.8461 52.2821 -0.0354466 52.0303 -31.9805 18.0428 -14.2769 -92.527 6.1659 0.195884 -0.538754 6.18296 3.90614 -1.20564 15.9437 4.42553 1.71618 
40.3987 93.4376 44.6856 74.6432 -41.6042 79.3894 -169.858 49.6301 89.7741 -54.4532 11.4816 -1.7842 50.6103 -4.96681 7.30158 49.3065 22.2483 -1.19366 177.536 9.06479 96.2587 -32.8608 8.78049 1.63465 62.1203 -2.603 -1.41555 51.7388 4.55148 21.8561 -0.588477 8.73373 -89.477 9.41 -0.938262 1.10585 -2.26112 -0.888688 1.14607 -24.7969 -1.22724 0.772745 -4.78423 -1.22723 0.772752 79.1694 -44.6327 -119.449 31.6944 -12.398 43.4198 4.37136 2.77531 -101.764 4.70349 0.276667 -3.77634 -103.677 -38.7631 53.4961 -0.381775 53.0657 -33.0086 16.7547 -14.0167 -92.1196 6.12953 0.259952 0.493182 4.65691 2.53445 -1.85769 16.6494 3.09008 1.21339 
48.2724 94.7037 52.5166 72.2373 -40.5011 77.8566 -170.438 49.3589 89.0034 -33.4019 12.8064 -3.40636 44.7091 -10.32 1.58533 41.2504 14.7004 6.33449 177.63 2.81693 95.1949 -25.7169 3.68404 1.11671 49.9161 0.651727 0.821372 46.1778 3.13371 22.212 -0.43383 8.34402 -89.3949 10.1876 -0.588281 1.25126 -1.48379 -0.532631 1.27594 -24.0166 -0.937123 1.01664 -4.00393 -0.937115 1.01665 79.0313 -45.628 -119.209 31.1711 -12.802 44.8335 4.64752 2.7312 -102.695 5.3749 0.312493 -3.59155 -103.97 -39.2065 53.267 -0.9311 52.9882 -32.4807 18.4974 -13.963 -91.8237 3.23425 0.0480246 -1.72413 3.9515 1.69971 -2.81226 16.5757 2.36806 0.935024 
56.2765 96.0288 60.2437 68.9649 -41.1365 75.7645 -171.148 48.3915 89.3863 -14.782 14.8298 -5.20349 41.7419 -12.7893 -2.47325 46.779 17.9653 -8.85005 178.417 -0.173124 94.3105 -24.4111 1.50576 -0.400463 44.5915 1.91355 2.04508 41.5867 1.77595 19.5366 -0.229352 7.96513 -89.341 10.9427 -0.151604 1.32538 -0.72897 -0.093113 1.33077 -23.2594 -0.5429 1.21858 -3.24678 -0.542893 1.21857 79.2993 -44.9092 -119.12 30.6733 -13.9592 45.1774 5.50044 2.82488 -103.01 5.74115 0.354639 -3.39642 -104.447 -39.6053 52.7284 -0.862947 52.6051 -32.3542 16.4435 -14.0166 -92.4721 4.50098 0.2395 1.12158 4.46523 1.78792 -2.40884 14.7328 2.20068 0.00812162 
63.9566 96.855 67.3081 65.9346 -43.6595 74.2573 -172.779 49.3951 91.5403 -7.96758 9.62138 -4.10746 45.5315 -12.1325 -2.16934 48.5149 19.8178 -7.85996 179.956 1.4817 94.4278 -34.6022 1.27345 -2.83071 45.6326 1.3189 1.48873 38.0258 0.909893 18.463 0.0514427 7.66152 -89.3185 11.5464 0.421274 1.31473 -0.125132 0.478701 1.29491 -22.6548 0.00669657 1.38054 -2.6422 0.00671084 1.38055 79.0208 -44.2086 -119.875 29.2866 -15.3802 45.1858 6.50208 3.04954 -103.564 6.78472 0.386154 -3.83318 -104.438 -39.9867 52.9415 1.24947 52.3288 -33.8141 18.642 -13.9738 -91.9093 5.25172 0.0705025 -1.92992 4.03122 2.36153 -2.89651 13.5864 2.81478 -0.157213 
70.884 96.8723 73.8232 64.6957 -48.7077 74.4877 -173.007 49.5621 94.8924 -9.57007 -0.587301 -2.83349 46.0166 -13.216 -2.72579 39.2445 11.5837 -0.536813 -176.842 5.47685 95.6597 -50.4054 4.79508 -6.1283 45.5904 0.52712 0.871351 37.2341 0.743393 19.1675 0.508342 7.56172 -89.3425 11.7421 1.31995 1.17115 0.0713785 1.3702 1.11192 -22.4624 0.90699 1.51366 -2.44972 0.906985 1.51366 79.7776 -42.2843 -119.583 30.6954 -16.0674 44.1423 3.99931 3.76285 -103.468 6.69 0.410472 -2.63754 -104.215 -39.7899 53.1849 1.95168 52.4936 -34.9211 18.5369 -13.9976 -91.8175 7.53211 0.0851044 -2.45673 1.94364 3.08907 -2.74969 14.6435 3.32466 -0.908919 
76.8268 96.1374 79.9923 67.6766 -52.3261 77.0494 -171.017 44.7154 95.1925 -7.96031 4.78897 -4.47263 38.5411 -13.9183 -3.57421 48.9681 20.2212 -7.89015 -174.878 10.448 96.7121 -68.8702 11.2759 -7.6365 45.8131 -0.48442 0.0855816 34.0977 0.038535 18.0404 0.677032 7.80588 -89.1783 11.2495 1.72987 1.46538 -0.421049 1.79266 1.38782 -22.9548 1.20957 1.91745 -2.94214 1.20956 1.91744 80.2276 -42.0628 -118.961 31.0735 -15.4015 42.0184 5.0306 3.54748 -103.421 7.59379 0.444191 -2.82992 -102.549 -38.5796 55.1918 2.39596 52.6627 -36.5923 18.1014 -14.1865 -91.7148 5.47481 0.0913592 -1.72883 0.994368 3.75234 -4.73702 14.8044 4.37235 -0.323708 
82.3564 94.1985 85.7353 72.3433 -54.7335 80.1693 -168.418 39.9379 92.9217 -10.4185 10.2564 -4.30909 37.2353 -13.0998 -5.60533 44.48 18.4143 5.26835 -174.831 17.1804 96.6231 -87.5572 18.1215 -7.34976 45.3619 -2.14682 -1.22366 31.0567 -0.713074 19.5934 0.761984 8.19476 -88.9119 10.4632 2.01703 1.98382 -1.20759 2.10237 1.89314 -23.737 1.32776 2.49809 -3.7243 1.32775 2.49808 79.1624 -44.8068 -119.379 29.0508 -13.8336 40.9487 4.27685 3.17433 -103.113 7.13934 0.381105 -3.18177 -102.632 -37.8266 54.6744 1.44034 52.0256 -35.2249 18.6974 -14.233 -91.9325 2.16415 0.00682734 -1.91246 -0.982618 4.09636 -6.47934 16.4515 4.9315 -0.0434267 
88.2263 91.9162 91.927 61.1155 -58.6705 67.5892 -165.235 45.0266 90.2018 -22.5709 12.2832 -7.17035 46.9719 -7.11105 5.52017 41.7936 11.8988 -21.5045 -170.378 33.6024 93.2369 -103.228 21.2876 -7.06657 42.8285 -4.13444 -2.91339 30.2706 -0.909272 19.7656 0.935805 7.71985 -88.3275 11.3993 2.64456 3.05975 -0.272173 2.7766 2.94046 -22.7888 1.60332 3.71235 -2.7762 1.60333 3.71235 78.6033 -45.9125 -119.739 28.4375 -12.8387 41.1642 3.60462 3.1827 -103.242 6.32336 0.362917 -2.7715 -102.868 -38.0017 54.3874 0.775029 51.9339 -33.9452 19.4098 -14.5898 -92.4855 3.71109 0.0637571 -1.44342 -2.98873 5.1638 -6.63449 18.4672 5.99604 0.312606 
94.6225 89.3237 99.0846 29.1635 -51.086 36.9499 -154.872 62.4405 79.5239 -37.6097 5.89309 -13.3443 62.1246 6.08095 15.1462 34.0373 6.1071 -26.345 -152.683 63.3572 76.6447 -113.668 21.3016 -6.11582 37.2627 -5.55331 -4.47952 32.7687 -0.25826 17.6559 0.720437 5.70469 -87.6306 15.3717 2.60848 4.39303 3.69631 2.7991 4.27421 -18.7846 1.16958 4.97248 1.22804 1.16957 4.97246 78.3914 -46.9396 -119.594 28.0625 -13.5199 40.5506 3.80754 3.39173 -103.035 5.50715 0.326249 -3.05075 -102.364 -38.0103 55.1986 0.868404 51.9035 -34.6356 18.5729 -14.3084 -92.0127 4.4684 0.021279 -2.52035 -3.34157 6.76203 -7.65433 19.4541 7.91771 1.28484 
100.465 86.2316 106.244 8.28364 -28.8613 18.5753 -94.8353 78.4705 18.282 -47.4474 0.819694 -17.5049 68.7804 12.6358 18.2804 45.2182 14.3428 -22.5277 -36.5931 70.609 -36.8183 -117.856 20.8751 -5.53519 34.5785 -6.3517 -5.45366 35.0877 0.252751 16.9767 0.199344 2.81682 -87.1254 21.123 1.95358 5.3933 9.44272 2.18872 5.30246 -13.0033 0.245316 5.73 7.00933 0.245316 5.72999 79.3002 -45.4443 -118.877 29.5675 -12.6881 39.8007 3.86842 3.16145 -101.871 6.24949 0.342204 -3.0937 -103.186 -38.2187 53.993 1.98654 51.2258 -35.1215 21.3925 -14.4251 -92.0915 3.57347 0.0868245 -0.93222 -1.53992 7.86278 -6.0614 19.3214 8.48642 -0.551496 
105.131 84.2776 112.705 3.59103 -6.29576 9.55241 -45.6148 69.0129 -35.077 -47.768 2.27537 -21.9534 67.8219 14.3936 23.335 57.877 23.8698 -21.9172 -16.5768 40.0275 -54.2218 -116.288 21.3196 -5.55443 36.073 -6.07769 -5.04909 42.8888 2.04899 18.9898 -0.518677 0.404348 -86.494 25.9793 1.07064 6.99035 14.2903 1.37652 6.93686 -8.0958 -1.0743 6.98979 11.9169 -1.07431 6.98978 79.5858 -44.8039 -118.722 31.1719 -11.3692 39.938 2.38381 2.63644 -101.4 4.90495 0.283102 -2.78869 -103.656 -38.4755 53.3798 4.71584 51.8961 -36.7122 20.9917 -13.6851 -90.674 7.44808 0.152165 -1.54569 0.567952 8.52896 -4.85485 17.5381 8.92885 -1.17695 
110.97 83.8076 118.754 3.70331 6.24551 4.63708 -42.4677 63.2479 -42.7981 -46.7698 2.68421 -24.216 66.4648 12.1435 21.5784 64.9505 30.3454 -18.8835 -12.5033 22.8412 -54.96 -108.447 18.7225 -7.14439 41.8316 -4.54294 -3.38689 42.359 1.83864 17.5425 -0.851153 -1.02241 -86.1931 28.8294 0.722584 7.78947 17.1356 1.06368 7.75051 -5.21756 -1.64473 7.64891 14.7951 -1.64472 7.64891 79.2823 -46.2811 -118.532 30.3689 -10.3307 40.9992 3.6075 1.86382 -100.415 5.01796 0.21382 -4.52063 -104.7 -39.0844 52.0592 2.27851 51.9092 -34.0433 18.5584 -13.1572 -90.5843 9.24635 0.226704 -1.22523 -0.112354 9.49749 -3.79228 17.5739 9.94913 -0.101945 
116.509 84.2218 124.869 3.59753 12.8166 -0.340343 -47.0481 60.6316 -39.383 -44.5512 3.9946 -26.1102 63.0691 5.91069 14.3958 68.9986 35.8543 -13.8477 -7.70614 15.8637 -52.5292 -94.1707 15.6604 -11.6824 43.3297 -2.50164 -1.61207 43.792 2.33161 19.8076 -0.76454 -1.94689 -86.1004 30.6589 1.01543 7.92609 18.9646 1.3622 7.87423 -3.38011 -1.40586 7.86662 16.6325 -1.40586 7.8666 79.2226 -45.9089 -118.789 30.0598 -8.89951 41.8278 4.58342 1.78564 -100.645 8.00769 0.164304 -6.27418 -104.621 -40.1669 52.7505 -2.64234 51.3705 -30.4999 20.6093 -13.6188 -91.9281 6.48438 0.12064 -1.63678 -0.305718 10.5902 -2.21046 16.5926 11.1033 1.36349 
122.269 84.6651 130.837 4.869 16.8748 -3.77838 -52.1584 59.946 -36.5811 -39.8557 7.94705 -26.6806 52.5808 -5.19826 8.3164 73.8414 41.075 -11.789 -3.23748 16.1028 -51.6513 -76.5315 9.24507 -17.8354 42.2563 -0.302633 0.060254 44.2123 2.34891 18.908 -0.818799 -2.56556 -86.0635 31.8994 0.983689 8.03278 20.2044 1.33513 7.98221 -2.13543 -1.46792 7.95902 17.8772 -1.46793 7.95901 78.8443 -46.3581 -119.167 29.5088 -9.49971 42.1045 4.12931 2.65174 -101.178 8.67421 0.242877 -5.13437 -102.68 -39.974 55.681 -5.5299 51.6833 -29.5741 24.5665 -14.0406 -92.1602 5.77429 0.122812 -1.35547 0.19542 11.8768 -2.61916 15.2211 12.769 3.1817 
